<?xml version="1.0" encoding="utf-8"?>
<!-- Generator: Adobe Illustrator 23.0.2, SVG Export Plug-In . SVG Version: 6.00 Build 0)  -->
<svg version="1.1" id="Layer_1" xmlns="http://www.w3.org/2000/svg" xmlns:xlink="http://www.w3.org/1999/xlink" x="0px" y="0px"
	 viewBox="0 0 800 600" style="enable-background:new 0 0 800 600;" xml:space="preserve">
<style type="text/css">
	.st0{fill-rule:evenodd;clip-rule:evenodd;fill:#D0EBE5;}
	.st1{fill-rule:evenodd;clip-rule:evenodd;fill:#4BAAB7;}
	.st2{fill:#AAD8D1;}
	.st3{fill-rule:evenodd;clip-rule:evenodd;fill:#B8DACC;}
	.st4{fill-rule:evenodd;clip-rule:evenodd;fill:#FFFFFF;}
	.st5{fill-rule:evenodd;clip-rule:evenodd;fill:#95CFC8;}
	.st6{fill-rule:evenodd;clip-rule:evenodd;fill:#338BA0;}
	.st7{fill-rule:evenodd;clip-rule:evenodd;fill:#E0EEED;}
	.st8{fill-rule:evenodd;clip-rule:evenodd;fill:#EDF7F5;}
	.st9{fill-rule:evenodd;clip-rule:evenodd;fill:#37708B;}
	.st10{fill-rule:evenodd;clip-rule:evenodd;fill:#20A9A5;}
	.st11{fill-rule:evenodd;clip-rule:evenodd;fill:#9CCB3E;}
	.st12{fill-rule:evenodd;clip-rule:evenodd;fill:#D8DD31;}
	.st13{fill-rule:evenodd;clip-rule:evenodd;fill:#AADBCB;}
	.st14{fill-rule:evenodd;clip-rule:evenodd;fill:#76C1BF;}
	.st15{fill-rule:evenodd;clip-rule:evenodd;fill:#80C7C3;}
	.st16{fill-rule:evenodd;clip-rule:evenodd;fill:#A2D4CC;}
	.st17{fill-rule:evenodd;clip-rule:evenodd;fill:#E5B979;}
	.st18{fill-rule:evenodd;clip-rule:evenodd;fill:#F8E0BD;}
	.st19{opacity:0.2;fill-rule:evenodd;clip-rule:evenodd;fill:#FFFFFF;}
	.st20{fill-rule:evenodd;clip-rule:evenodd;fill:#F08B63;}
	.st21{fill-rule:evenodd;clip-rule:evenodd;fill:#F8D79E;}
	.st22{fill-rule:evenodd;clip-rule:evenodd;fill:#F3A055;}
	.st23{fill-rule:evenodd;clip-rule:evenodd;fill:#E45338;stroke:#E95A3B;stroke-width:0.216;stroke-miterlimit:22.9256;}
	.st24{fill-rule:evenodd;clip-rule:evenodd;fill:#4A7D97;}
	.st25{fill-rule:evenodd;clip-rule:evenodd;fill:#285B7B;}
	.st26{fill:#D8DD31;}
	.st27{fill-rule:evenodd;clip-rule:evenodd;fill:#244767;}
	.st28{fill-rule:evenodd;clip-rule:evenodd;}
	.st29{fill-rule:evenodd;clip-rule:evenodd;fill:#2D3A3A;}
	.st30{fill-rule:evenodd;clip-rule:evenodd;fill:#D5E4EA;}
	.st31{fill-rule:evenodd;clip-rule:evenodd;fill:#C4DAE0;}
	.st32{fill-rule:evenodd;clip-rule:evenodd;fill:#A4CDD4;}
	.st33{fill-rule:evenodd;clip-rule:evenodd;fill:#EE2530;}
	.st34{fill-rule:evenodd;clip-rule:evenodd;fill:#202828;}
	.st35{fill-rule:evenodd;clip-rule:evenodd;fill:#BC202B;}
	.st36{fill-rule:evenodd;clip-rule:evenodd;fill:#F1AB32;}
	.st37{fill:#F1AB32;}
	.st38{fill-rule:evenodd;clip-rule:evenodd;fill:#85CEC1;}
	.st39{fill-rule:evenodd;clip-rule:evenodd;fill:#138986;}
	.st40{fill-rule:evenodd;clip-rule:evenodd;fill:#E99E2D;}
	.st41{fill-rule:evenodd;clip-rule:evenodd;fill:#5A98A8;}
	.st42{fill-rule:evenodd;clip-rule:evenodd;fill:#3C6A87;}
	.st43{fill-rule:evenodd;clip-rule:evenodd;fill:#515859;}
	.st44{fill-rule:evenodd;clip-rule:evenodd;fill:#3C4D4C;}
	.st45{fill-rule:evenodd;clip-rule:evenodd;fill:#66A6B6;}
	.st46{fill-rule:evenodd;clip-rule:evenodd;fill:#83BECB;}
	.st47{fill-rule:evenodd;clip-rule:evenodd;fill:#D5E8D9;}
	.st48{fill:#231F20;}
	.st49{fill-rule:evenodd;clip-rule:evenodd;fill:#F0C683;}
	.st50{fill-rule:evenodd;clip-rule:evenodd;fill:#AB4198;}
	.st51{fill-rule:evenodd;clip-rule:evenodd;fill:#952C8D;}
	.st52{fill-rule:evenodd;clip-rule:evenodd;fill:#608EA5;}
	.st53{fill-rule:evenodd;clip-rule:evenodd;fill:#348D99;}
	.st54{fill:#348D99;}
	.st55{fill-rule:evenodd;clip-rule:evenodd;fill:#F07040;}
	.st56{fill-rule:evenodd;clip-rule:evenodd;fill:#D43932;stroke:#E95A3B;stroke-width:0.216;stroke-miterlimit:22.9256;}
	.st57{fill-rule:evenodd;clip-rule:evenodd;fill:#F19555;}
	.st58{fill-rule:evenodd;clip-rule:evenodd;fill:#722D2E;}
	.st59{fill-rule:evenodd;clip-rule:evenodd;fill:#5E2A29;}
	.st60{fill-rule:evenodd;clip-rule:evenodd;fill:#F0E2C6;}
	.st61{fill:#608EA5;}
	.st62{fill-rule:evenodd;clip-rule:evenodd;fill:#98C4CE;}
	.st63{fill:#FFFFFF;}
	.st64{fill-rule:evenodd;clip-rule:evenodd;fill:#656A6A;}
	.st65{fill:none;stroke:#FFFFFF;stroke-width:2.126;stroke-linecap:round;stroke-linejoin:round;stroke-miterlimit:22.9256;}
</style>
<polygon class="st0" points="0.19,0 799.81,0 799.81,600 0.19,600 0.19,0 "/>
<path class="st1" d="M0.19,0h290.09v297.07H0.19V0L0.19,0z M304.8,0h269.01v297.07H304.8V0L304.8,0z"/>
<path class="st2" d="M110.48,329.98c-3.91,0-7.08,3.17-7.08,7.09v18.98c0,4.59-1.88,8.76-4.91,11.79c-3.03,3.03-7.2,4.91-11.79,4.91
	H23.99c-4.58,0-8.76-1.88-11.79-4.91c-3.03-3.03-4.91-7.21-4.91-11.79v-18.98c0-3.91-3.17-7.09-7.08-7.09c-0.01,0-0.02,0-0.03,0
	v45.67c0.63,0.77,1.3,1.5,2.01,2.21c5.59,5.59,13.31,9.06,21.8,9.06H86.7c8.49,0,16.21-3.47,21.8-9.06
	c5.59-5.59,9.06-13.31,9.06-21.81v-18.98C117.56,333.15,114.39,329.98,110.48,329.98z"/>
<path class="st3" d="M800.19,322.96c-0.71-0.21-1.45-0.33-2.22-0.33h-1.35c-0.02-0.74-0.63-1.34-1.37-1.34h-11.26
	c-0.74,0-1.35,0.6-1.37,1.34h-1.35c-2.12,0-4.05,0.87-5.45,2.27l-0.01,0.01c-1.4,1.4-2.27,3.33-2.27,5.46v8.74h-3.8
	c-7.34,0-13.35,6.01-13.35,13.36v77.07c0,7.35,6.01,13.36,13.35,13.36h1.2v5.78h4.77v-5.78h24.51V339.11h-22.42v-8.74
	c0-0.96,0.39-1.83,1.02-2.46c0.63-0.63,1.5-1.02,2.46-1.02h1.37c0.11,0.65,0.68,1.14,1.35,1.14h11.26c0.68,0,1.24-0.49,1.35-1.14
	h1.37c0.84,0,1.62,0.3,2.22,0.8V322.96L800.19,322.96z"/>
<path class="st4" d="M0.19,66.43v-9.99h63.09c2.75,0,4.99,2.25,4.99,5l0,0c0,2.75-2.25,5-4.99,5H0.19L0.19,66.43z M0.19,50.47v-6.64
	h89.34c1.82,0,3.32,1.49,3.32,3.32l0,0c0,1.82-1.49,3.32-3.32,3.32H0.19L0.19,50.47z M0.19,40.14V20.76H33.4
	c5.33,0,9.68,4.36,9.68,9.69l0,0c0,5.33-4.36,9.69-9.68,9.69H0.19L0.19,40.14z"/>
<path class="st5" d="M480.33,294.55h56.7c10.83,0,19.7,8.87,19.7,19.71v41.66c0,10.84-8.87,19.71-19.7,19.71h-56.7
	c-10.83,0-19.7-8.87-19.7-19.71v-41.66C460.63,303.42,469.49,294.55,480.33,294.55L480.33,294.55z"/>
<polygon class="st5" points="537.16,386.93 479.75,386.93 479.75,398.72 502.42,398.72 502.42,450.44 514.48,450.44 514.48,398.72 
	537.16,398.72 537.16,386.93 "/>
<polygon class="st5" points="83.83,386.93 26.42,386.93 26.42,398.72 49.09,398.72 49.09,450.44 61.15,450.44 61.15,398.72 
	83.83,398.72 83.83,386.93 "/>
<path class="st5" d="M329.22,294.55h56.7c10.83,0,19.7,8.87,19.7,19.71v41.66c0,10.84-8.86,19.71-19.7,19.71h-56.7
	c-10.83,0-19.7-8.87-19.7-19.71v-41.66C309.52,303.42,318.38,294.55,329.22,294.55L329.22,294.55z"/>
<polygon class="st5" points="386.05,386.93 328.64,386.93 328.64,398.72 351.31,398.72 351.31,450.44 363.37,450.44 363.37,398.72 
	386.05,398.72 386.05,386.93 "/>
<path class="st5" d="M178.11,294.55h56.7c10.83,0,19.7,8.87,19.7,19.71v41.66c0,10.84-8.87,19.71-19.7,19.71h-56.7
	c-10.83,0-19.7-8.87-19.7-19.71v-41.66C158.41,303.42,167.27,294.55,178.11,294.55L178.11,294.55z"/>
<polygon class="st5" points="234.94,386.93 177.53,386.93 177.53,398.72 200.2,398.72 200.2,450.44 212.26,450.44 212.26,398.72 
	234.94,398.72 234.94,386.93 "/>
<path class="st6" d="M14.81,297.64h26.98V201.7h29.07v-5.43h-7.63v-26.75h7.63v-4.2H55.5v-8.3c3.2,1.91,7.4,1.49,10.15-1.27
	l-5.89-5.89l-5.89-5.89c-3.25,3.25-3.25,8.53,0,11.78H45.6v-5.36H30.22v-18.76h-3.85v18.76H11v5.36h-9.9v9.57h-0.9v6.44h10.14v16.33
	H0.19v13.62h14.62V297.64L14.81,297.64z M46.26,171.76h13.19v16.33H46.26V171.76L46.26,171.76z M29.89,171.76h13.19v16.33H29.89
	V171.76L29.89,171.76z M13.51,171.76h13.19v16.33H13.51V171.76L13.51,171.76z"/>
<polygon class="st7" points="156.4,108.78 200.67,125.91 167.18,125.91 133.65,108.78 156.4,108.78 "/>
<path class="st5" d="M27,294.55h56.7c10.83,0,19.7,8.87,19.7,19.71v41.66c0,10.84-8.87,19.71-19.7,19.71H27
	c-10.83,0-19.7-8.87-19.7-19.71v-41.66C7.3,303.42,16.16,294.55,27,294.55L27,294.55z"/>
<path class="st8" d="M139.16,144.99h78.13h5.86h1.2c7.98,0,14.51-6.53,14.51-14.52l0,0c0-7.98-6.53-14.52-14.51-14.52h-7.06
	c-3.69,0-7.08,1.4-9.65,3.7c-15.67,0.01-109.92,0.16-109.9,0.22C101.96,130.4,127.39,143.88,139.16,144.99L139.16,144.99z"/>
<path class="st5" d="M233.49,141.73c1.94-1.58,3.47-3.65,4.39-6.01H115.2c4,2.34,8.25,4.41,12.24,6.01H233.49L233.49,141.73z"/>
<polygon class="st8" points="89.18,94.12 104.1,94.12 119.1,119.79 97.73,119.79 89.18,94.12 "/>
<polygon class="st5" points="93.34,106.62 91.34,100.61 101.4,100.61 103.4,106.62 93.34,106.62 "/>
<polygon class="st7" points="78.62,128.1 94.58,128.1 122.98,119.79 97.73,119.79 78.62,128.1 "/>
<path class="st9" d="M144.47,125.57L144.47,125.57c1.45,0,2.63,1.19,2.64,2.64v3.1c0,1.45-1.19,2.64-2.64,2.64l0,0
	c-1.45,0-2.63-1.19-2.63-2.64v-3.1C141.84,126.76,143.02,125.57,144.47,125.57L144.47,125.57z"/>
<path class="st9" d="M157.68,125.57L157.68,125.57c1.45,0,2.63,1.19,2.63,2.64l0,3.1c0,1.45-1.19,2.64-2.63,2.64l0,0
	c-1.45,0-2.64-1.19-2.64-2.64v-3.1C155.05,126.76,156.23,125.57,157.68,125.57L157.68,125.57z"/>
<path class="st9" d="M170.89,125.57L170.89,125.57c1.45,0,2.64,1.19,2.64,2.64l0,3.1c0,1.45-1.19,2.64-2.64,2.64l0,0
	c-1.45,0-2.63-1.19-2.63-2.64v-3.1C168.26,126.76,169.44,125.57,170.89,125.57L170.89,125.57z"/>
<path class="st9" d="M184.1,125.57L184.1,125.57c1.45,0,2.64,1.19,2.64,2.64v3.1c0,1.45-1.19,2.64-2.64,2.64l0,0
	c-1.45,0-2.63-1.19-2.63-2.64v-3.1C181.47,126.76,182.65,125.57,184.1,125.57L184.1,125.57z"/>
<path class="st9" d="M197.31,125.57L197.31,125.57c1.45,0,2.63,1.19,2.63,2.64v3.1c0,1.45-1.19,2.64-2.63,2.64l0,0
	c-1.45,0-2.64-1.19-2.64-2.64v-3.1C194.67,126.76,195.86,125.57,197.31,125.57L197.31,125.57z"/>
<path class="st9" d="M201.92,139.33h-13.88c-2.03,0-3.69,1.66-3.69,3.69v0c0,2.03,1.66,3.69,3.69,3.69h13.88
	c2.03,0,3.69-1.66,3.69-3.69v0C205.61,140.99,203.95,139.33,201.92,139.33L201.92,139.33z"/>
<polygon class="st10" points="201.87,138.49 175.79,138.49 168.97,146.36 178.59,147.55 201.87,147.55 201.87,138.49 "/>
<polygon class="st7" points="148.26,159.72 197.27,138.49 159.5,138.49 122.37,159.72 148.26,159.72 "/>
<path class="st9" d="M235.98,121.81c1.81,2.42,2.89,5.42,2.89,8.67l0,0c0,0.44-0.02,0.88-0.06,1.31h-9.75v0
	c-0.9-0.02-1.63-0.76-1.63-1.67v-6.64c0-0.91,0.73-1.65,1.63-1.67v0H235.98L235.98,121.81z M223.31,131.78h-11.84
	c-0.03-0.29-0.04-0.59-0.04-0.89l0,0c0-5,4.08-9.08,9.08-9.08h2.81c0.92,0,1.67,0.75,1.67,1.67v6.64
	C224.97,131.03,224.22,131.78,223.31,131.78L223.31,131.78z"/>
<path class="st9" d="M131.27,125.57L131.27,125.57c1.45,0,2.64,1.19,2.64,2.64v3.1c0,1.45-1.19,2.64-2.64,2.64l0,0
	c-1.45,0-2.63-1.19-2.63-2.64v-3.1C128.63,126.76,129.82,125.57,131.27,125.57L131.27,125.57z"/>
<path class="st11" d="M368.93,199.16h3.3c15.18,0,27.6,12.42,27.6,27.61v45.95c0,15.18-12.42,27.61-27.6,27.61h-3.3
	c-15.18,0-27.6-12.42-27.6-27.61v-45.95C341.34,211.59,353.75,199.16,368.93,199.16L368.93,199.16z"/>
<path class="st12" d="M358.05,199.16h12.94c10.67,2.03,18.81,11.47,18.81,22.71v38.47c0,12.71-10.4,23.12-23.11,23.12h-13.64
	c-11.05,0-20.36-7.87-22.59-18.29v-38.41C330.45,211.59,342.87,199.16,358.05,199.16L358.05,199.16z"/>
<polygon class="st13" points="0.19,448.67 799.81,448.67 799.81,600 0.19,600 0.19,448.67 "/>
<path class="st14" d="M193.7,463.86h36.53c1.06,0,1.93,0.87,1.93,1.93l0,0c0,1.06-0.87,1.93-1.93,1.93h-9.03
	c-1.82,0,3.32,1.49,3.32,3.32l0,0c0,1.83-1.49,3.32-3.32,3.32h-18.72c-1.82,0-3.32-1.49-3.32-3.32l0,0c0-1.82,1.49-3.32,3.32-3.32
	h-8.77c-1.06,0-1.93-0.87-1.93-1.93l0,0C191.77,464.73,192.64,463.86,193.7,463.86L193.7,463.86z"/>
<polygon class="st15" points="0.19,484.78 799.81,484.78 799.81,600 0.19,600 0.19,484.78 "/>
<path class="st16" d="M799.81,537.66V544h-22.66c-1.74,0-3.17-1.43-3.17-3.17l0,0c0-1.74,1.43-3.17,3.17-3.17H799.81L799.81,537.66z
	"/>
<path class="st16" d="M799.81,503.9v6.34h-99.6c-1.74,0-3.17-1.43-3.17-3.17l0,0c0-1.74,1.43-3.17,3.17-3.17H799.81L799.81,503.9z"
	/>
<path class="st16" d="M0.19,544v-6.34h131.44c1.74,0,3.17,1.43,3.17,3.17l0,0c0,1.74-1.43,3.17-3.17,3.17H0.19L0.19,544z"/>
<path class="st14" d="M21.41,463.86h44.87c1.06,0,1.93,0.87,1.93,1.93l0,0c0,1.06-0.87,1.93-1.93,1.93h52.62
	c1.82,0,3.32,1.49,3.32,3.32l0,0c0,1.83-1.49,3.32-3.32,3.32H38.95c-1.82,0-3.32-1.49-3.32-3.32l0,0c0-1.82,1.49-3.32,3.32-3.32
	H21.41c-1.06,0-1.93-0.87-1.93-1.93l0,0C19.48,464.73,20.35,463.86,21.41,463.86L21.41,463.86z"/>
<path class="st17" d="M497.19,407.52L497.19,407.52c2.34-1.35,5.36-0.54,6.71,1.8l43.87,76.09c1.35,2.34,0.54,5.36-1.8,6.72l0,0
	c-2.34,1.35-5.36,0.54-6.71-1.8l-43.88-76.08C494.04,411.89,494.85,408.87,497.19,407.52L497.19,407.52z"/>
<path class="st18" d="M545.98,492.12c-2.34,1.35-5.36,0.54-6.71-1.8l-43.88-76.08c-1.35-2.34-0.54-5.37,1.8-6.72L545.98,492.12
	L545.98,492.12z"/>
<path class="st4" d="M444.84,16.09h89.89c2.75,0,4.99,2.25,4.99,5l0,0c0,2.75-2.25,5-4.99,5h16.22c7.31,0,13.3,5.99,13.3,13.3l0,0
	c0,7.32-5.98,13.3-13.3,13.3H533c-2.75,0-2.25,5-4.99,5H394.79c-2.75,0-4.99-2.25-4.99-5l0,0c0-2.75,2.25-5,4.99-5h54.45
	c-1.83-2.28-2.93-5.17-2.93-8.31l0,0c0-7.32,5.98-13.3,13.3-13.3h-14.78c-2.75,0-4.99-2.25-4.99-5l0,0
	C439.84,18.33,442.09,16.09,444.84,16.09L444.84,16.09z M466.34,81.74h92.58c1.82,0,3.32,1.49,3.32,3.32l0,0
	c0,1.82-1.49,3.32-3.32,3.32h-92.58c-1.82,0-3.32-1.49-3.32-3.32l0,0C463.02,83.23,464.51,81.74,466.34,81.74L466.34,81.74z
	 M445.09,69.4h125.44c1.82,0,3.32,1.49,3.32,3.32l0,0c0,1.82-1.49,3.32-3.32,3.32H445.09c-1.82,0-3.32-1.49-3.32-3.32l0,0
	C441.77,70.9,443.26,69.4,445.09,69.4L445.09,69.4z"/>
<path class="st4" d="M304.8,35.83h41.9c4.64,0,8.44,3.8,8.44,8.44l0,0c0,4.64-3.8,8.44-8.44,8.44h-41.9V35.83L304.8,35.83z
	 M290.28,52.71h-33.43c-4.64,0-8.44-3.8-8.44-8.44l0,0c0-2.04,0.73-3.91,1.94-5.37h-15.73c-1.74,0-3.17-1.43-3.17-3.17l0,0
	c0-1.74,1.43-3.17,3.17-3.17h15.57c-1.16,0-2.1-0.95-2.1-2.1l0,0c0-1.16,0.95-2.1,2.1-2.1h40.09V52.71L290.28,52.71z M304.8,28.35
	h24.97c1.16,0,2.1,0.95,2.1,2.1l0,0c0,1.16-0.95,2.1-2.1,2.1H304.8V28.35L304.8,28.35z M269.76,58.45h20.51v6.34h-20.51
	c-1.74,0-3.17-1.43-3.17-3.17l0,0C266.6,59.87,268.02,58.45,269.76,58.45L269.76,58.45z M304.8,58.45h21.99
	c1.74,0,3.17,1.43,3.17,3.17l0,0c0,1.74-1.43,3.17-3.17,3.17H304.8V58.45L304.8,58.45z"/>
<path class="st19" d="M115.69,0.63h47.22l127.72,221.33v75.74h-3.5L115.69,0.63L115.69,0.63z M501.44,0.63h26.48l31.11,54.13
	c1.27,2.21,4.1,2.94,6.3,1.69c2.2-1.25,2.94-4.1,1.68-6.29L538.55,0.63h10.1l25.15,43.58v81.82L501.44,0.63L501.44,0.63z
	 M337.7,0.63h47.22l159.38,276.18c3.86,6.68,3.48,14.7-0.28,20.89h-34.88c-0.09-0.14-0.17-0.29-0.26-0.44L337.7,0.63L337.7,0.63z
	 M191.46,0.63h38.85l42.21,73.14c4.62,8.01,1.9,18.43-6.13,23.01c-8.03,4.57-18.34,1.91-23.01-6.17L191.46,0.63L191.46,0.63z"/>
<path class="st20" d="M38.07,456.93l-2.31,4c-1.38,2.39-4.46,3.21-6.84,1.83L6.6,449.86c-2.39-1.38-3.21-4.46-1.83-6.84l2.31-4
	c1.38-2.39,4.46-3.21,6.84-1.83l22.33,12.89C38.62,451.46,39.45,454.54,38.07,456.93L38.07,456.93z"/>
<path class="st21" d="M36.36,459.89l-0.59,1.03c-1.38,2.39-4.46,3.21-6.84,1.83L6.6,449.86c-2.39-1.38-3.21-4.46-1.83-6.84
	l0.59-1.03L36.36,459.89L36.36,459.89z"/>
<path class="st22" d="M74.49,445.97l3.82-2.59c2.28-1.54,5.41-0.94,6.96,1.34l10.22,15.1c1.54,2.28,0.94,5.41-1.34,6.96l-3.82,2.59
	c-2.28,1.54-5.41,0.94-6.96-1.34l-10.21-15.1C71.61,450.64,72.21,447.51,74.49,445.97L74.49,445.97z"/>
<path class="st23" d="M74.49,445.97l3.82-2.59c2.28-1.54,5.41-0.94,6.96,1.34l6.51,9.62c1.54,2.28,0.94,5.41-1.34,6.96l-3.82,2.59
	c-2.28,1.55-5.41,0.94-6.96-1.34l-6.51-9.62C71.61,450.64,72.21,447.51,74.49,445.97L74.49,445.97z"/>
<path class="st20" d="M74.49,445.97l2.15-1.46l15.3,23.75l-1.62,1.1c-2.28,1.54-5.41,0.94-6.96-1.34l-10.21-15.1
	C71.61,450.64,72.21,447.51,74.49,445.97L74.49,445.97z"/>
<path class="st24" d="M55.35,278.03L55.35,278.03c17.46,0,31.75,14.29,31.75,31.76v49.66H23.6v-49.66
	C23.6,292.32,37.89,278.03,55.35,278.03L55.35,278.03z"/>
<path class="st25" d="M55.35,278.03L55.35,278.03c17.46,0,31.75,14.29,31.75,31.76v19.72H55.35L55.35,278.03L55.35,278.03
	L55.35,278.03z"/>
<path class="st26" d="M55.35,243.45c-4.53,0-8.64,1.84-11.61,4.81c-2.97,2.97-4.81,7.08-4.81,11.62c0,1.33,0.16,2.62,0.46,3.86
	h-3.23c-0.25-1.25-0.38-2.54-0.38-3.86c0-5.41,2.19-10.3,5.73-13.85c3.54-3.54,8.44-5.74,13.84-5.74c5.4,0,10.3,2.19,13.84,5.74
	c3.54,3.54,5.73,8.44,5.73,13.85c0,1.32-0.13,2.61-0.38,3.86h-3.23c0.3-1.24,0.46-2.53,0.46-3.86c0-4.54-1.84-8.64-4.81-11.62
	C63.99,245.29,59.88,243.45,55.35,243.45L55.35,243.45z"/>
<path class="st25" d="M55.35,263.43L55.35,263.43c10.66,0,19.38,8.73,19.38,19.39v30.32H35.96v-30.32
	C35.96,272.15,44.69,263.43,55.35,263.43L55.35,263.43z"/>
<path class="st27" d="M55.35,263.43L55.35,263.43c10.66,0,19.38,8.73,19.38,19.39v30.32H55.35L55.35,263.43L55.35,263.43
	L55.35,263.43z"/>
<path class="st21" d="M55.35,248.25L55.35,248.25c7.81,0,14.21,6.4,14.21,14.21v18.16c0,7.82-6.39,14.21-14.21,14.21h0
	c-7.81,0-14.2-6.39-14.2-14.21v-18.16C41.14,254.65,47.54,248.25,55.35,248.25L55.35,248.25z"/>
<path class="st17" d="M55.35,248.25L55.35,248.25c7.81,0,14.21,6.4,14.21,14.21v18.16c0,7.82-6.39,14.21-14.21,14.21h0V248.25
	L55.35,248.25z"/>
<path class="st12" d="M69.36,278.65c4.9,0,8.86-3.97,8.86-8.87c0-4.9-3.97-8.87-8.86-8.87V278.65L69.36,278.65z M41.34,278.65
	c-4.9,0-8.86-3.97-8.86-8.87c0-4.9,3.97-8.87,8.86-8.87V278.65L41.34,278.65z"/>
<path class="st28" d="M49.22,245.74h-1.7c-4.83,0-8.77,3.95-8.77,8.78c0,1.47,0,0.73,0,2.2c0,4.83,3.95,8.78,8.77,8.78h1.7v-9.94
	c0,5.4,4.41,9.81,9.81,9.81h12.33v-9.81c0-5.4-4.41-9.81-9.81-9.81H49.22L49.22,245.74z"/>
<path class="st28" d="M20.31,345.99h70.68v20.07c0,3.68-3.01,6.69-6.69,6.69h-57.3c-3.68,0-6.69-3.01-6.69-6.69V345.99L20.31,345.99
	z"/>
<path class="st29" d="M16.08,356.43L16.08,356.43c4.28-2.83,10.02-1.6,12.92,2.63l57.38,83.92l-15.55,10.29l-57.38-83.92
	C10.55,365.12,11.8,359.26,16.08,356.43L16.08,356.43z"/>
<path class="st29" d="M94.62,356.43L94.62,356.43c-4.28-2.83-10.02-1.6-12.92,2.63l-57.38,83.92l15.55,10.29l57.38-83.92
	C100.15,365.12,98.9,359.26,94.62,356.43L94.62,356.43z"/>
<polygon class="st30" points="18.14,300.38 92.56,300.38 92.56,354.21 18.14,354.21 18.14,300.38 "/>
<polygon class="st31" points="55.35,300.38 92.56,300.38 92.56,354.21 55.35,354.21 55.35,300.38 "/>
<polygon class="st9" points="18.14,354.21 92.56,354.21 92.56,349.33 85.71,349.33 85.71,347.28 76.44,347.28 76.44,349.33 
	34.26,349.33 34.26,347.28 24.99,347.28 24.99,349.33 18.14,349.33 18.14,354.21 "/>
<path class="st4" d="M51.3,321.73h8.1c1.97,0,3.58,1.61,3.58,3.58l0,0c0,1.97-1.61,3.58-3.58,3.58h-8.1c-1.97,0-3.58-1.61-3.58-3.58
	l0,0C47.72,323.34,49.33,321.73,51.3,321.73L51.3,321.73z"/>
<path class="st32" d="M55.35,321.73h4.05c1.97,0,3.58,1.61,3.58,3.58l0,0c0,1.97-1.61,3.58-3.58,3.58h-4.05V321.73L55.35,321.73z"/>
<path class="st21" d="M90.32,469.36c-2.28,1.54-5.41,0.94-6.96-1.34l-3.7-5.46c1.55,2.27,4.67,2.87,6.95,1.33l1.75-1.18l3.58,5.56
	L90.32,469.36L90.32,469.36z"/>
<path class="st28" d="M61.01,272.59h2.31c0.63,0,1.15,0.52,1.15,1.15l0,0c0,0.63-0.52,1.15-1.15,1.15h-2.31
	c-0.63,0-1.15-0.52-1.15-1.15l0,0C59.86,273.11,60.37,272.59,61.01,272.59L61.01,272.59z"/>
<path class="st28" d="M47.38,272.59h2.31c0.63,0,1.15,0.52,1.15,1.15l0,0c0,0.63-0.52,1.15-1.15,1.15h-2.31
	c-0.63,0-1.15-0.52-1.15-1.15l0,0C46.23,273.11,46.75,272.59,47.38,272.59L47.38,272.59z"/>
<polygon class="st14" points="0.19,563.43 799.81,563.43 799.81,600 0.19,600 0.19,563.43 "/>
<path class="st2" d="M405.62,337.07c0-3.91,3.17-7.09,7.08-7.09c3.91,0,7.08,3.17,7.08,7.09v18.98c0,8.5-3.47,16.22-9.06,21.81
	c-5.59,5.59-13.31,9.06-21.8,9.06h-62.71c-8.49,0-16.21-3.47-21.8-9.06c-5.59-5.59-9.06-13.31-9.06-21.81v-18.98
	c0-3.91,3.17-7.09,7.08-7.09c3.91,0,7.08,3.17,7.08,7.09v18.98c0,4.59,1.88,8.76,4.91,11.79c3.03,3.03,7.2,4.91,11.79,4.91h62.71
	c4.58,0,8.76-1.88,11.79-4.91c3.03-3.03,4.91-7.21,4.91-11.79V337.07L405.62,337.07z"/>
<path class="st27" d="M393.72,424.87c-6.64-14.54-17.05-25.5-28.02-30.96c6.85-18.74,4.58-44.53-10.32-63.54
	c-14.62-18.65-26.03-23.47-41.52-23.12c0,0,2.11,18.71,1.23,23.11l41.25,68.63l36.54,79.97
	C402.19,466.75,403.06,445.31,393.72,424.87z"/>
<path class="st33" d="M399.18,483.44l0.01,0.06l-30.85,5.2C372.23,474.08,396.79,469.29,399.18,483.44L399.18,483.44z"/>
<path class="st34" d="M399.18,483.44l0.6,3.59l-30.38,5.38l-1.07-3.72C368.33,488.7,399.17,483.41,399.18,483.44L399.18,483.44z"/>
<path class="st21" d="M341.34,297.7h-23.11c3.45-4.3,8.07-7.62,13.38-9.46v-9.31c0-5.35,4.38-9.73,9.73-9.73
	c5.35,0,9.73,4.38,9.73,9.73v9.31c5.31,1.85,9.93,5.16,13.38,9.46H341.34L341.34,297.7z"/>
<path class="st17" d="M341.34,286.6L341.34,286.6v-7.55h9.73v9.19c5.31,1.85,9.93,5.16,13.38,9.46h-13.81h-9.31l0,0V286.6
	L341.34,286.6L341.34,286.6z"/>
<path class="st27" d="M370.96,316.24c0-7.02-2.44-13.46-6.51-18.54h-46.23c-4.07,5.08-6.51,11.52-6.51,18.54
	c0,11.78,6.87,21.95,16.81,26.73l-28.64,49.63l0,0l-51.51,89.27c16.2,0.56,35.16-11.82,47.01-32.36
	c8.22-14.24,11.33-29.47,9.6-42.06c20.58-3.51,42.79-18.71,52.59-41.91c5.31-12.56,7.31-22.14,6.7-30.54
	C368.45,329.89,370.96,323.36,370.96,316.24z"/>
<path class="st33" d="M248.37,490.05l-0.04,0.04l-23.35-23.36C239.94,461.14,259.07,479.34,248.37,490.05L248.37,490.05z"/>
<path class="st34" d="M248.37,490.05l-2.72,2.72l-23.21-22.84l2.54-3.2C224.98,466.73,248.4,490.02,248.37,490.05L248.37,490.05z"/>
<path class="st25" d="M302.48,388.11l30.73-53.25c-0.61,6.71-2.72,14.32-6.61,23.54C321.37,370.76,312.62,380.85,302.48,388.11
	L302.48,388.11z"/>
<path class="st25" d="M290.54,408.79l-25.6,44.36c7.12-3.47,14.02-9.93,19.02-18.59C288.96,425.9,291.11,416.69,290.54,408.79
	L290.54,408.79z"/>
<path class="st33" d="M311.61,246.64c-1.35-3.53-2.09-6.66-2.09-11.37c0-4.71-0.2-12.07,2.19-16.54
	c0.12-0.1,21.67-14.24,23.82-14.77c1.88-0.35,3.82-0.53,5.81-0.53c17.57,0,31.82,14.26,31.82,31.84c0,4.01-0.74,7.84-2.09,11.37
	h0.03l-15.58,38.8l-0.06,0.18h-28.23l-15.65-38.97H311.61L311.61,246.64z"/>
<path class="st35" d="M347.75,204.08c14.5,2.97,25.41,15.81,25.41,31.19c0,4.01-0.74,7.84-2.09,11.37h0.03l-15.58,38.8l-0.06,0.18
	h-15.79l-15.62-38.9h0.02c-1.35-3.53-2.09-7.36-2.09-11.37C321.98,219.83,333.07,206.91,347.75,204.08L347.75,204.08z"/>
<path class="st17" d="M341.34,189.99L341.34,189.99c4.15,0,7.54,3.4,7.54,7.55v7.19c0,4.15-3.4,7.55-7.54,7.55l0,0
	c-4.15,0-7.54-3.4-7.54-7.55v-7.19C333.79,193.39,337.19,189.99,341.34,189.99L341.34,189.99z"/>
<path class="st18" d="M340.94,212.26c-3.96-0.21-7.14-3.52-7.14-7.54v-7.19c0-4.02,3.18-7.33,7.14-7.54V212.26L340.94,212.26z"/>
<path class="st17" d="M360.77,218.64L360.77,218.64c3.34-1.93,7.64-0.77,9.57,2.56l56.21,97.48c1.92,3.34,0.77,7.64-2.56,9.57l0,0
	c-3.34,1.93-7.64,0.77-9.57-2.56l-56.21-97.48C356.28,224.88,357.44,220.57,360.77,218.64L360.77,218.64z"/>
<path class="st25" d="M342.18,299.23c2.26,2.82,3.62,6.4,3.62,10.29c0,9.09-7.37,16.46-16.45,16.46s-16.45-7.37-16.45-16.46
	c0-3.89,1.35-7.47,3.62-10.29H342.18L342.18,299.23z"/>
<polygon class="st28" points="315.77,292.42 371.81,292.42 371.81,301.3 315.77,301.3 315.77,292.42 "/>
<polygon class="st34" points="315.77,292.42 335.98,292.42 335.98,301.3 315.77,301.3 315.77,292.42 "/>
<path class="st34" d="M341.38,293.7c-1.31,2.08-2.07,4.54-2.07,7.17l0,0c0,7.44,6.08,13.53,13.52,13.53h5.51
	c7.44,0,13.52-6.09,13.52-13.53l0,0c0-2.63-0.76-5.09-2.07-7.17H341.38L341.38,293.7z"/>
<path class="st28" d="M360.86,314.15c6.24-1.19,11-6.71,11-13.29l0,0c0-2.63-0.76-5.09-2.07-7.17h-20.42
	c-0.66,1.7-1.03,3.55-1.03,5.48l0,0C348.34,306.63,353.77,312.88,360.86,314.15L360.86,314.15z"/>
<path class="st36" d="M341.42,293.7h25.8c0.83,0,1.51,0.68,1.51,1.51l0,0c0,0.83-0.68,1.51-1.51,1.51h-25.8
	c-0.83,0-1.51-0.68-1.51-1.51l0,0C339.91,294.38,340.59,293.7,341.42,293.7L341.42,293.7z"/>
<polygon class="st37" points="365.32,296.68 367.35,295.52 371.78,300.88 367.72,303.21 365.32,296.68 "/>
<path class="st35" d="M329.19,229.12c0.2,0.95,0.31,1.93,0.31,2.94c0,7.67-6.22,13.89-13.88,13.89c-7.66,0-13.88-6.22-13.88-13.89
	c0-1.01,0.11-1.99,0.31-2.94H329.19L329.19,229.12z"/>
<path class="st33" d="M304.42,240.26c-1.69-2.3-2.68-5.14-2.68-8.2c0-6.31,4.21-11.64,9.97-13.33h0c6.63,0,12,5.38,12,12
	c0,6.63-5.37,12-12,12C308.97,242.73,306.44,241.81,304.42,240.26L304.42,240.26z"/>
<path class="st35" d="M347.89,229.12c0.2,0.95,0.31,1.93,0.31,2.94c0,7.67-6.22,13.89-13.88,13.89c-7.67,0-13.88-6.22-13.88-13.89
	c0-1.01,0.11-1.99,0.31-2.94H347.89L347.89,229.12z"/>
<path class="st33" d="M318.58,230.84c0-6.63,5.37-12,12-12c6.53,0,11.84,5.25,11.84,11.89c0,4.7-2.7,8.77-6.63,10.74
	c-3.45,1.73-7.25,1.83-10.7,0.04C321.24,239.52,318.58,235.52,318.58,230.84L318.58,230.84z"/>
<path class="st12" d="M370.03,256.93c-13.19-0.21-23.83-12.03-23.83-26.56c0-14.54,10.64-26.35,23.83-26.56v7.05
	c-9.85,0.3-17.75,9.17-17.75,20.05c0,10.89,7.9,19.75,17.75,20.05V256.93L370.03,256.93z"/>
<g>
	<path class="st38" d="M113.11,398.4h31.04c5.77,0,10.49,4.72,10.49,10.49v31.05c0,5.77-4.72,10.49-10.49,10.49h-31.04
		c-5.77,0-10.49-4.72-10.49-10.49v-31.05C102.62,403.12,107.34,398.4,113.11,398.4L113.11,398.4z"/>
	<path class="st13" d="M118.25,403.51H139c3.85,0,7.01,3.16,7.01,7.01v29.3c0,3.86-3.15,7.01-7.01,7.01h-20.74
		c-3.85,0-7.01-3.16-7.01-7.01v-29.3C111.25,406.66,114.4,403.51,118.25,403.51L118.25,403.51z"/>
	<path class="st38" d="M116.49,391.77h24.28c4.51,0,8.2,3.69,8.2,8.21v14.87c0,4.51-3.69,8.21-8.2,8.21h-24.28
		c-4.51,0-8.2-3.69-8.2-8.21v-14.87C108.28,395.46,111.98,391.77,116.49,391.77L116.49,391.77z"/>
	<path class="st13" d="M116.49,387.26h24.28c4.51,0,8.2,3.69,8.2,8.21v14.87c0,4.51-3.69,8.21-8.2,8.21h-24.28
		c-4.51,0-8.2-3.69-8.2-8.21v-14.87C108.28,390.95,111.98,387.26,116.49,387.26L116.49,387.26z"/>
	<path class="st39" d="M125.97,415.53h5.3c0.97,0,1.76,0.79,1.76,1.76v2.36c0,0.97-0.79,1.76-1.76,1.76h-5.3
		c-0.97,0-1.76-0.79-1.76-1.76v-2.36C124.21,416.32,125,415.53,125.97,415.53L125.97,415.53z"/>
	<path class="st13" d="M124.8,380.42h7.64c1.42,0,2.58,1.16,2.58,2.58v4.68c0,1.03-0.61,1.93-1.49,2.34
		c0.05-0.17,0.08-0.36,0.08-0.54v-3.65c0-1.11-0.91-2.01-2.01-2.01h-5.95c-1.11,0-2.01,0.91-2.01,2.01v3.65
		c0,0.19,0.03,0.37,0.08,0.54c-0.88-0.41-1.49-1.31-1.49-2.34V383C122.22,381.58,123.38,380.42,124.8,380.42L124.8,380.42z"/>
</g>
<path class="st17" d="M341.34,132.22c18.47,0,33.46,14.99,33.46,33.47c0,18.48-14.98,33.47-33.46,33.47
	c-18.47,0-33.46-14.99-33.46-33.47C307.88,147.21,322.86,132.22,341.34,132.22L341.34,132.22z"/>
<path class="st18" d="M314.34,185.46c-4.06-5.54-6.46-12.38-6.46-19.77c0-15.21,10.15-28.05,24.03-32.12h0.01
	c15.97,0,28.92,12.95,28.92,28.93s-12.95,28.93-28.92,28.93C325.31,191.43,319.21,189.2,314.34,185.46L314.34,185.46z"/>
<path class="st28" d="M347.38,173.1c2.73,0,4.94,2.21,4.94,4.94c0,2.73-2.21,4.94-4.94,4.94c-2.73,0-4.94-2.21-4.94-4.94
	C342.44,175.31,344.65,173.1,347.38,173.1L347.38,173.1z"/>
<path class="st36" d="M341.34,132.22c1.86,0,3.69,0.15,5.47,0.45c0.44,1.19,0.95,2.35,1.52,3.47c-0.18,1.42-0.28,2.88-0.28,4.35
	c0,9.5,3.96,18.09,10.32,24.18c-2.48,0.59-5.07,0.9-7.73,0.9c-15.29,0-28.19-10.27-32.18-24.29
	C324.45,135.66,332.49,132.22,341.34,132.22L341.34,132.22z"/>
<path class="st17" d="M499.44,454.4L499.44,454.4c2.34-1.35,5.56-0.64,6.71,1.8l13.86,29.21c1.16,2.44,0.54,5.36-1.8,6.72l0,0
	c-2.34,1.35-5.55,0.64-6.71-1.8l-13.86-29.21C496.48,458.67,497.1,455.75,499.44,454.4L499.44,454.4z"/>
<path class="st18" d="M518.21,492.12c-2.34,1.35-5.55,0.64-6.71-1.8l-13.86-29.21c-1.16-2.44-0.54-5.36,1.8-6.71L518.21,492.12
	L518.21,492.12z"/>
<path class="st40" d="M341.34,132.22c18.47,0,33.46,14.99,33.46,33.47c0,3.05-0.41,6.01-1.18,8.82
	c-3.87-14.2-16.86-24.65-32.28-24.65c-3.19,0-6.27,0.45-9.19,1.28V133.5C335.06,132.66,338.15,132.22,341.34,132.22L341.34,132.22z"
	/>
<path class="st36" d="M360,155.56c-5.33-3.59-11.75-5.69-18.66-5.69c-3.19,0-6.27,0.45-9.19,1.28v-17.58
	C345.62,133.67,356.91,143,360,155.56L360,155.56z"/>
<path class="st40" d="M360.86,114.77c6.5,0,11.76,5.27,11.76,11.77c0,6.5-5.27,11.77-11.76,11.77c-6.5,0-11.76-5.27-11.76-11.77
	C349.09,120.04,354.36,114.77,360.86,114.77L360.86,114.77z"/>
<path class="st36" d="M351.36,133.49c-1.43-1.95-2.27-4.35-2.27-6.95c0-5.35,3.57-9.86,8.45-11.3h0c5.61,0,10.17,4.56,10.17,10.17
	c0,5.62-4.55,10.17-10.17,10.17C355.22,135.59,353.08,134.8,351.36,133.49L351.36,133.49z"/>
<path class="st2" d="M254.51,337.07c0-3.91,3.17-7.09,7.08-7.09c3.91,0,7.08,3.17,7.08,7.09v18.98c0,8.5-3.47,16.22-9.06,21.81
	c-5.59,5.59-13.31,9.06-21.8,9.06H175.1c-8.49,0-16.21-3.47-21.8-9.06c-5.59-5.59-9.06-13.31-9.06-21.81v-18.98
	c0-3.91,3.17-7.09,7.08-7.09c3.91,0,7.08,3.17,7.08,7.09v18.98c0,4.59,1.88,8.76,4.91,11.79c3.03,3.03,7.2,4.91,11.79,4.91h62.71
	c4.58,0,8.76-1.88,11.79-4.91c3.03-3.03,4.91-7.21,4.91-11.79V337.07L254.51,337.07z"/>
<path class="st41" d="M206.92,251.12L206.92,251.12c14.78,0,26.87,12.1,26.87,26.89v53.61h-53.75V278
	C180.05,263.21,192.14,251.12,206.92,251.12L206.92,251.12z"/>
<path class="st42" d="M206.92,251.12L206.92,251.12c14.78,0,26.87,12.1,26.87,26.89v53.61h-26.87L206.92,251.12L206.92,251.12
	L206.92,251.12z"/>
<path class="st25" d="M206.92,295.83L206.92,295.83c12.02,0,21.86,9.84,21.86,21.86v43.6h-43.71v-43.6
	C185.07,305.67,194.9,295.83,206.92,295.83L206.92,295.83z"/>
<path class="st27" d="M206.92,295.83L206.92,295.83c12.02,0,21.86,9.84,21.86,21.86v43.6h-21.86L206.92,295.83L206.92,295.83
	L206.92,295.83z"/>
<path class="st25" d="M206.92,295.83L206.92,295.83c3.67,0,7.13,0.92,10.17,2.53v55.21h-10.17L206.92,295.83L206.92,295.83
	L206.92,295.83z"/>
<path class="st4" d="M206.92,295.83L206.92,295.83c-3.67,0-7.13,0.92-10.17,2.53v55.21h10.17V295.83L206.92,295.83L206.92,295.83z"
	/>
<path class="st4" d="M206.92,295.83L206.92,295.83c-3.67,0-7.13,0.92-10.17,2.53v55.21h10.17V295.83L206.92,295.83L206.92,295.83z"
	/>
<path class="st30" d="M206.92,295.83L206.92,295.83c3.67,0,7.13,0.92,10.17,2.53v55.21h-10.17L206.92,295.83L206.92,295.83
	L206.92,295.83z"/>
<path class="st30" d="M206.92,295.83L206.92,295.83c3.67,0,7.13,0.92,10.17,2.53v55.21h-10.17L206.92,295.83L206.92,295.83
	L206.92,295.83z"/>
<path class="st34" d="M206.92,346.74c14.13,0,25.59,11.47,25.59,25.61c0,0.14,0,0.27-0.01,0.41h-51.18c0-0.13-0.01-0.27-0.01-0.41
	C181.33,358.21,192.79,346.74,206.92,346.74L206.92,346.74z"/>
<path class="st34" d="M206.92,461.85c-4.86-0.02-8.84-4-8.84-8.87v-11.11c0-4.87,3.97-8.86,8.84-8.87V461.85L206.92,461.85z"/>
<path class="st43" d="M206.92,454.24c-3.27-0.02-5.94-2.7-5.94-5.97v-7.48c0-3.27,2.67-5.95,5.94-5.97V454.24L206.92,454.24z"/>
<path class="st28" d="M206.92,461.85c4.86-0.02,8.84-4,8.84-8.87v-11.11c0-4.87-3.97-8.86-8.84-8.87V461.85L206.92,461.85z"/>
<path class="st44" d="M206.92,454.24c3.27-0.02,5.93-2.7,5.93-5.97v-7.48c0-3.27-2.67-5.95-5.93-5.97V454.24L206.92,454.24z"/>
<path class="st21" d="M206.92,436.43c-24.83-15.68-29.09-52.08-13.9-75.41c1.36-2.23,3.77-3.29,6.32-3.29h0
	c4.16,0,7.57,3.41,7.57,7.57v0V436.43L206.92,436.43z"/>
<path class="st17" d="M206.92,436.43c24.83-15.68,29.09-52.08,13.9-75.41c-1.36-2.23-3.77-3.29-6.32-3.29h0
	c-4.17,0-7.57,3.41-7.57,7.57v0V436.43L206.92,436.43z"/>
<path class="st21" d="M206.92,294.55L206.92,294.55c2.59,0,4.7,2.12,4.7,4.7v6.49c0,2.59-2.12,4.71-4.7,4.71l0,0
	c-2.59,0-4.7-2.12-4.7-4.71v-6.49C202.22,296.66,204.34,294.55,206.92,294.55L206.92,294.55z"/>
<path class="st17" d="M206.92,294.55L206.92,294.55c2.59,0,4.7,2.12,4.7,4.7v6.49c0,2.59-2.12,4.71-4.7,4.71l0,0h0L206.92,294.55
	L206.92,294.55L206.92,294.55z"/>
<path class="st21" d="M206.92,258.01c11.47,0,20.77,9.3,20.77,20.78c0,11.47-9.3,20.78-20.77,20.78c-11.47,0-20.77-9.3-20.77-20.78
	C186.16,267.32,195.46,258.01,206.92,258.01L206.92,258.01z"/>
<path class="st17" d="M206.92,278.79l-0.63-20.77c0.21-0.01,0.42-0.01,0.63-0.01c11.47,0,20.77,9.3,20.77,20.78
	c0,11.47-9.3,20.78-20.77,20.78c-0.13,0-0.27,0-0.4,0L206.92,278.79L206.92,278.79z"/>
<path class="st45" d="M207.17,257.33c10.78,0,19.71,7.92,21.3,18.26c-1.62,0.35-3.31,0.53-5.03,0.53c-11.04,0-20.33-7.51-23.05-17.7
	C202.52,257.71,204.8,257.33,207.17,257.33L207.17,257.33z"/>
<path class="st46" d="M184.98,275.45c1.5-8.62,8.1-15.48,16.57-17.38C199.54,266.42,193.16,273.06,184.98,275.45L184.98,275.45z"/>
<path class="st47" d="M196.84,280.72h5.73c1.13,0,2.06,0.93,2.06,2.06v1.72c0,1.13-0.93,2.06-2.06,2.06h-5.73
	c-1.13,0-2.06-0.93-2.06-2.06v-1.72C194.78,281.64,195.71,280.72,196.84,280.72L196.84,280.72z"/>
<path class="st48" d="M196.84,279.65h5.73c0.86,0,1.64,0.35,2.21,0.92c0.57,0.57,0.92,1.35,0.92,2.21v1.72
	c0,0.86-0.35,1.64-0.92,2.21c-0.57,0.57-1.35,0.92-2.21,0.92h-5.73c-0.86,0-1.64-0.35-2.2-0.92l0,0l0,0
	c-0.57-0.57-0.92-1.35-0.92-2.2v-1.72c0-0.86,0.35-1.64,0.92-2.21C195.2,280.01,195.98,279.65,196.84,279.65L196.84,279.65z
	 M202.57,281.78h-5.73c-0.27,0-0.52,0.11-0.71,0.29c-0.18,0.18-0.29,0.43-0.29,0.71v1.72c0,0.28,0.11,0.53,0.29,0.71l0,0
	c0.18,0.18,0.43,0.29,0.71,0.29h5.73c0.27,0,0.52-0.11,0.71-0.29c0.18-0.18,0.29-0.43,0.29-0.71v-1.72c0-0.27-0.11-0.52-0.29-0.71
	C203.09,281.89,202.84,281.78,202.57,281.78L202.57,281.78z"/>
<path class="st47" d="M211.28,280.72h5.73c1.13,0,2.06,0.93,2.06,2.06v1.72c0,1.13-0.93,2.06-2.06,2.06h-5.73
	c-1.13,0-2.06-0.93-2.06-2.06v-1.72C209.22,281.64,210.14,280.72,211.28,280.72L211.28,280.72z"/>
<path class="st48" d="M211.28,279.65h5.73c0.86,0,1.64,0.35,2.21,0.92c0.57,0.57,0.92,1.35,0.92,2.21v1.72
	c0,0.86-0.35,1.64-0.92,2.2l0,0l0,0c-0.57,0.57-1.35,0.92-2.2,0.92h-5.73c-0.86,0-1.64-0.35-2.21-0.92
	c-0.57-0.57-0.92-1.35-0.92-2.21v-1.72c0-0.86,0.35-1.64,0.92-2.21C209.64,280.01,210.42,279.65,211.28,279.65L211.28,279.65z
	 M217.01,281.78h-5.73c-0.27,0-0.52,0.11-0.71,0.29c-0.18,0.18-0.29,0.43-0.29,0.71v1.72c0,0.27,0.11,0.52,0.29,0.71
	c0.18,0.18,0.43,0.29,0.71,0.29h5.73c0.28,0,0.53-0.11,0.71-0.29l0,0c0.18-0.18,0.29-0.43,0.29-0.71v-1.72
	c0-0.27-0.11-0.52-0.29-0.71C217.53,281.89,217.28,281.78,217.01,281.78L217.01,281.78z"/>
<path class="st14" d="M668.48,363.14h-3.81v-8.74c0-2.12-0.87-4.05-2.27-5.46l-0.01-0.01c-1.4-1.4-3.33-2.27-5.46-2.27h-1.35
	c-0.02-0.74-0.63-1.34-1.37-1.34h-11.26c-0.74,0-1.35,0.6-1.37,1.34h-1.35c-2.12,0-4.05,0.87-5.46,2.27l-0.01,0.01
	c-1.4,1.4-2.27,3.33-2.27,5.46v8.74h-3.8c-7.34,0-13.35,6.01-13.35,13.36v53.04c0,7.35,6.01,13.36,13.35,13.36h1.2v5.78h4.77v-5.78
	h33.82c7.34,0,13.35-6.01,13.35-13.36V376.5C681.83,369.15,675.83,363.14,668.48,363.14L668.48,363.14z M641.6,350.92
	c0.11,0.64,0.68,1.14,1.35,1.14h11.26c0.68,0,1.24-0.5,1.35-1.14h1.37c0.96,0,1.83,0.39,2.46,1.02c0.63,0.63,1.02,1.5,1.02,2.46
	v8.74h-23.68v-8.74c0-0.96,0.39-1.83,1.02-2.46c0.63-0.63,1.5-1.02,2.46-1.02H641.6L641.6,350.92z"/>
<path class="st48" d="M202.96,279.81c0.57-0.42,1.21-0.75,1.88-0.97c0.67-0.22,1.37-0.33,2.08-0.33c0.71,0,1.41,0.11,2.08,0.33
	c0.67,0.22,1.31,0.55,1.88,0.97l-1.25,1.71c-0.39-0.29-0.83-0.51-1.28-0.66c-0.46-0.15-0.94-0.23-1.43-0.23
	c-0.49,0-0.97,0.08-1.43,0.23c-0.46,0.15-0.89,0.37-1.28,0.66L202.96,279.81L202.96,279.81z"/>
<path class="st30" d="M184.88,321.68h44.1c1.68,0,3.05,1.37,3.05,3.05v15.48c0,1.68-1.37,3.05-3.05,3.05h-44.1
	c-1.68,0-3.05-1.37-3.05-3.05v-15.48C181.83,323.05,183.2,321.68,184.88,321.68L184.88,321.68z"/>
<path class="st31" d="M206.92,321.68h22.05c1.68,0,3.05,1.37,3.05,3.05v15.48c0,1.68-1.37,3.05-3.05,3.05h-22.05V321.68
	L206.92,321.68z"/>
<path class="st32" d="M206.92,329.95c1.78,0,3.22,1.27,3.22,2.83c0,1.56-1.44,2.83-3.22,2.83c-1.78,0-3.22-1.27-3.22-2.83
	C203.7,331.21,205.15,329.95,206.92,329.95L206.92,329.95z"/>
<path class="st4" d="M206.92,335.6c-1.78,0-3.22-1.27-3.22-2.83c0-1.56,1.44-2.83,3.22-2.83V335.6L206.92,335.6z"/>
<path class="st21" d="M222.27,338.19c2.48,0,4.49,2.01,4.49,4.49c0,2.48-2.01,4.49-4.49,4.49c-2.48,0-4.49-2.01-4.49-4.49
	C217.79,340.2,219.8,338.19,222.27,338.19L222.27,338.19z"/>
<path class="st49" d="M222.27,342.68l-0.14-4.49c0.04,0,0.09,0,0.14,0c2.48,0,4.49,2.01,4.49,4.49c0,2.48-2.01,4.49-4.49,4.49
	c-0.03,0-0.06,0-0.09,0L222.27,342.68L222.27,342.68z"/>
<path class="st21" d="M191.32,338.19c2.48,0,4.49,2.01,4.49,4.49c0,2.48-2.01,4.49-4.49,4.49c-2.48,0-4.49-2.01-4.49-4.49
	C186.83,340.2,188.84,338.19,191.32,338.19L191.32,338.19z"/>
<path class="st49" d="M191.32,342.68l-0.14-4.49c0.04,0,0.09,0,0.14,0c2.48,0,4.49,2.01,4.49,4.49c0,2.48-2.01,4.49-4.49,4.49
	c-0.03,0-0.06,0-0.09,0L191.32,342.68L191.32,342.68z"/>
<path class="st16" d="M679.59,437.81c2.22-4.01,6.98-4.88,8.93-4.09c0.08,0.04,0.16,0.06,0.23,0.09v-0.59
	c-0.01-0.01-0.01-0.02,0-0.02v-4.93h2.29h6.2v9.24c0.71,0.94,1.14,1.97,1.14,3.07v3.44h-38.09
	C660.66,435.04,669.5,431.24,679.59,437.81L679.59,437.81z"/>
<polygon class="st50" points="516.23,427.2 535.84,457.64 517.45,466.17 506.57,449.45 515.33,467.56 495.96,476.42 485.91,445.42 
	516.23,427.2 "/>
<path class="st51" d="M503.59,443.28l11.74,24.28l-7.76,3.55c-1.96-4.44-8.36-17.61-11.37-24.38c1.32,0.63,2.9,0.72,4.35,0.11l0,0
	C502.11,446.17,503.2,444.82,503.59,443.28L503.59,443.28z"/>
<path class="st51" d="M516.23,427.2l19.61,30.45l-7.69,3.56c-4.12-6.68-12.36-19.66-18.73-29.92L516.23,427.2L516.23,427.2z"/>
<path class="st2" d="M556.73,337.07c0-3.91,3.17-7.09,7.08-7.09c3.91,0,7.08,3.17,7.08,7.09v18.98c0,8.5-3.47,16.22-9.06,21.81
	c-5.59,5.59-13.31,9.06-21.8,9.06h-62.71c-8.5,0-16.21-3.47-21.8-9.06c-5.59-5.59-9.06-13.31-9.06-21.81v-18.98
	c0-3.91,3.17-7.09,7.08-7.09c3.91,0,7.08,3.17,7.08,7.09v18.98c0,4.59,1.88,8.76,4.91,11.79c3.03,3.03,7.2,4.91,11.79,4.91h62.71
	c4.58,0,8.76-1.88,11.79-4.91c3.03-3.03,4.91-7.21,4.91-11.79V337.07L556.73,337.07z"/>
<path class="st25" d="M738.46,281.57h-58.12c0-19.35,0-44.1,0-63.44c0-5.31,4.34-9.65,9.65-9.65h38.83c5.31,0,9.65,4.34,9.65,9.65
	C738.46,237.47,738.46,262.22,738.46,281.57L738.46,281.57z"/>
<path class="st42" d="M710.26,281.57h-29.93c0-19.35,0-44.1,0-63.44c0-5.31,4.34-9.65,9.65-9.65h20.28V281.57L710.26,281.57z"/>
<path class="st52" d="M702.08,208.48h15.74c0.75,1.32,1.18,2.84,1.18,4.47c0,5-4.05,9.05-9.05,9.05c-5,0-9.05-4.05-9.05-9.05
	C700.9,211.32,701.33,209.8,702.08,208.48L702.08,208.48z"/>
<path class="st34" d="M738.42,281.53c0.02,0.49,0.04,0.98,0.04,1.47c0,7.21-2.63,13.81-6.98,18.89v131.28h-12.05V310.29
	c-3.13,1.15-6.5,1.78-10.03,1.78c-3.4,0-6.65-0.58-9.68-1.66v122.76h-12.05V302.29c-4.56-5.13-7.32-11.89-7.32-19.29
	c0-0.49,0.01-0.98,0.04-1.47H738.42L738.42,281.53z M660.25,444.02h38.12v4.65h-38.12V444.02L660.25,444.02z"/>
<path class="st53" d="M799.81,528.36v9.62c-0.35,0.08-9.67,0.12-10.05,0.12h-50.11c-2.71,0-4.93-2.22-4.93-4.93l0,0
	c0-2.71,2.22-4.93,4.93-4.93h59.07C799.1,528.24,799.46,528.28,799.81,528.36L799.81,528.36z"/>
<path class="st27" d="M494.84,384.46l19.83,31.31l6.87,10.84l-35.29,18.94c-0.67-0.73-1.3-1.52-1.83-2.39l-26.18-42.31
	C448.83,385.66,480.98,362.57,494.84,384.46L494.84,384.46z"/>
<path class="st25" d="M501.22,437.5l-14.99,8.04c-0.67-0.73-1.3-1.52-1.83-2.39l-26.18-42.31c-4.88-7.89,1.46-17.92,10.63-22.66
	L501.22,437.5L501.22,437.5z"/>
<polygon class="st5" points="691.52,257.36 797.31,257.36 797.31,267.96 751.5,267.96 751.5,448.67 737.33,448.67 737.33,267.96 
	691.52,267.96 691.52,257.36 "/>
<g>
	<path class="st54" d="M456.99,499.65c0-2.18-1.79-3.97-3.97-3.97h-22.08c0.3-0.37,0.5-0.84,0.5-1.35c0-1.18-0.96-2.14-2.14-2.14
		H236.01c-1.18,0-2.14,0.96-2.14,2.14c0,1.18,0.96,2.14,2.14,2.14h39.32c-0.98,0.72-1.62,1.88-1.62,3.18c0,2.18,1.79,3.97,3.97,3.97
		h175.34C455.2,503.62,456.99,501.84,456.99,499.65z"/>
	<path class="st54" d="M500.12,503.62h81.01c2.18,0,3.97-1.79,3.97-3.97c0-2.18-1.79-3.97-3.97-3.97h-81.01
		c-2.18,0-3.97,1.79-3.97,3.97C496.15,501.84,497.94,503.62,500.12,503.62z"/>
	<path class="st54" d="M658.16,537.66H483.28c-1.74,0-3.17,1.43-3.17,3.17c0,1.74,1.43,3.17,3.17,3.17h174.88
		c1.74,0,3.17-1.43,3.17-3.17C661.33,539.09,659.91,537.66,658.16,537.66z"/>
	<path class="st54" d="M688.66,515.04h-62.47l0-0.1c0-1.74-1.42-3.17-3.17-3.17h-172h-27.7c-1.74,0-3.17,1.43-3.17,3.17
		c0,1.74,1.43,3.17,3.17,3.17h27.87c-1.21,1.46-1.94,3.34-1.94,5.37c0,4.64,3.8,8.44,8.44,8.44h230.98c4.64,0,8.44-3.8,8.44-8.44
		C697.1,518.84,693.3,515.04,688.66,515.04z"/>
</g>
<path class="st23" d="M574.62,476.87l14.11-3.78l4.73-1.27l1.27,4.73l1.14,4.25l2.84,10.62c0.7,2.6-0.86,5.3-3.46,5.99l-8.02,2.15
	l-6.09,1.63l-4.17-15.56l-2.01-7.49L574.62,476.87L574.62,476.87z"/>
<path class="st27" d="M520.99,161.04h50.37c20.37,0,37.03,16.67,37.03,37.05v79.24c0,20.38-16.67,37.05-37.03,37.05h-20.88v-68.59
	h-66.53v-47.7C483.96,177.71,500.62,161.04,520.99,161.04L520.99,161.04z"/>
<path class="st21" d="M476.93,189.29L476.93,189.29c-17.2,0-31.27,14.08-31.27,31.28v38.93c0,17.21,14.07,31.28,31.27,31.28l0,0
	c17.2,0,31.27-14.08,31.27-31.28v-38.93C508.19,203.37,494.12,189.29,476.93,189.29L476.93,189.29z"/>
<path class="st21" d="M476.93,189.29L476.93,189.29c-17.2,0-31.27,14.08-31.27,31.28v38.93c0,17.21,14.07,31.28,31.27,31.28l0,0
	c17.2,0,31.27-14.08,31.27-31.28v-38.93C508.19,203.37,494.12,189.29,476.93,189.29L476.93,189.29z"/>
<path class="st17" d="M475.76,290.76c0.39,0.01,0.78,0.02,1.17,0.02l0,0c13.01,0,24.23-8.06,28.92-19.44v-26.44
	c0-11.71-9.57-21.29-21.28-21.29l0,0c-11.7,0-21.27,9.58-21.27,21.29v26.49C463.3,279.97,468.42,287.39,475.76,290.76L475.76,290.76
	z"/>
<path class="st29" d="M587.43,327.44c-1.66,12.61-17,22.6-36.05,23.33l52.95,133.96l-26.37,10.2l-67.11-167.48H587.43L587.43,327.44
	z"/>
<path class="st34" d="M587.43,327.44c-1.66,12.61-17,22.6-36.05,23.33l6.9,17.45l-20.71,25.9l-12.03-30.02l29.39-36.66h19.24H587.43
	L587.43,327.44z"/>
<path class="st28" d="M558.28,368.22L558.28,368.22L558.28,368.22l46.05,116.5l-12.42,4.8L548.3,380.7l-90.16,112.72l-20.9-19.17
	l99.04-123.54l-9.32-23.26h27.97h9.17h10.06h7.9h5.37c-0.52,3.99-2.42,7.72-5.37,10.97v0.07L558.28,368.22L558.28,368.22z"/>
<path class="st29" d="M442.07,478.67l-4.83-4.43l98.55-122.93l0.29,10.1L442.07,478.67L442.07,478.67z"/>
<path class="st27" d="M496.87,174.11h21.29v3.86h-8.98c-19.19,0-34.9,15.71-34.9,34.92v0.21c0,19.2,15.71,34.92,34.9,34.92h8.98
	v2.74h-21.29c-21,0-38.19-17.19-38.19-38.2v-0.23C458.69,191.3,475.87,174.11,496.87,174.11L496.87,174.11z"/>
<path class="st21" d="M460.33,194.09c9.64-5.57,21.97-2.26,27.54,7.38c5.57,9.65,2.26,21.98-7.38,27.55
	c-9.64,5.57-21.97,2.26-27.54-7.38C447.39,212,450.69,199.66,460.33,194.09L460.33,194.09z"/>
<path class="st55" d="M503.15,178.74h35.34h10.06h4.25c0.29,0,0.58,0,0.87,0.01h0l0.02,0l0.02,0c0.28,0.01,0.56,0.02,0.84,0.03
	l0.06,0c0.25,0.01,0.51,0.03,0.76,0.05l0.18,0.01c0.21,0.02,0.43,0.04,0.64,0.06l0.26,0.03l0.07,0.01c0.16,0.02,0.33,0.04,0.49,0.06
	l0.07,0.01l0.27,0.03l0.01,0l0,0c16.91,2.25,30.07,16.84,30.07,34.35v0c0,3.23-0.45,6.35-1.28,9.32h1.28v104.74h-76.67
	l-39.79-101.26h0c-1.59-3.96-2.46-8.28-2.46-12.79v0C468.52,194.33,484.1,178.74,503.15,178.74L503.15,178.74z"/>
<path class="st23" d="M546.35,178.74h2.19h4.25h0.1c0.26,0,0.51,0,0.77,0.01h0l0.02,0l0.02,0c0.28,0.01,0.56,0.02,0.84,0.03l0.06,0
	c0.25,0.01,0.51,0.03,0.76,0.05l0.18,0.01c0.21,0.02,0.43,0.04,0.64,0.06l0.26,0.03l0.07,0.01c0.16,0.02,0.33,0.04,0.49,0.06
	l0.07,0.01l0.27,0.03l0.01,0l0,0c16.91,2.25,30.07,16.84,30.07,34.35v0c0,3.23-0.45,6.35-1.28,9.32h1.28v104.74h-33.47
	l-39.78-101.26h0c-1.59-3.96-2.46-8.28-2.46-12.79v0C511.72,194.33,527.3,178.74,546.35,178.74L546.35,178.74z"/>
<polygon class="st23" points="587.43,235.13 587.43,327.44 510.76,327.44 474.49,235.13 587.43,235.13 "/>
<polygon class="st56" points="587.43,235.13 587.43,327.44 553.96,327.44 517.7,235.13 587.43,235.13 "/>
<path class="st27" d="M579.87,165.54H585h1.42v16.13c-20.63,0.34-40.6,4.35-40.6,37.2v0.24c0,17.32,11.35,32.11,26.98,37.29
	c5.18,2.31,10.91,3.6,16.92,3.6h10.93v2.48h-20.77c-26.57,0-48.31-21.75-48.31-48.33v-0.3C531.56,187.29,553.3,165.54,579.87,165.54
	L579.87,165.54z"/>
<path class="st21" d="M652.07,336.95c6.91,1.25,13.08,5.82,16.08,12.75c4.47,10.31,0.34,22.19-9.23,27.6l0.16,0.36l-0.04,0.02l0,0
	c-2.07,0.9-4.19,1.55-6.33,1.98c-0.61,0.13-1.22,0.23-1.83,0.31c-13.54,1.85-27.28-5.41-32.97-18.53l-18.81-43.37l0-0.01l-7.1-16.37
	c-2.28-5.26-2.11-10.99-0.01-15.9l-32.43-74.77c-3.76-8.68,0.04-19.39,8.93-22.63v0c8.68-3.77,18.86,0.25,22.62,8.93l32.43,74.77
	c10,1.78,18.97,8.36,23.29,18.33l7.53,17.37C658.62,317.6,657.4,328.48,652.07,336.95L652.07,336.95z"/>
<path class="st17" d="M652.07,336.95c6.91,1.25,13.08,5.82,16.08,12.75c1.85,4.25,2.22,8.77,1.36,12.99
	c-1.65,2.24-3.78,4.16-6.31,5.59l0.15,0.34l-0.03,0.01l0,0c-1.93,0.84-3.91,1.45-5.9,1.84c-0.57,0.12-1.14,0.22-1.71,0.29
	c-12.62,1.72-25.43-5.04-30.73-17.27l-17.54-40.43l0-0.01l-6.62-15.26c-2.13-4.9-1.97-10.24-0.01-14.82l-30.23-69.7
	c-3.51-8.09,0.04-18.08,8.32-21.1v0c2.4-1.04,4.91-1.44,7.36-1.29c2.04,1.67,3.72,3.84,4.84,6.42l32.43,74.77
	c10,1.78,18.97,8.36,23.29,18.33l7.53,17.37C658.62,317.6,657.4,328.48,652.07,336.95L652.07,336.95z"/>
<path class="st57" d="M571.22,184.43L571.22,184.43c-12.57,4.58-17.96,19.74-12.63,32.01l12.34,28.45l44.63-19.38l-12.34-28.45
	C597.9,184.79,583.5,179.1,571.22,184.43L571.22,184.43z"/>
<path class="st23" d="M582.17,240.02l33.39-14.5l-12.34-28.45c-2.58-5.95-7.29-10.35-12.86-12.7c-2.66,0.08-5.35,0.65-7.93,1.77l0,0
	c-11.2,4.08-16,17.59-11.25,28.53L582.17,240.02L582.17,240.02z"/>
<path class="st21" d="M509,161.13v18.38c2.5,5.74,8.23,9.78,14.86,9.78l0,0c6.63,0,12.36-4.04,14.86-9.78v-57.37
	c1.69-1.09,2.81-2.98,2.81-5.13v-5.65c0-3.36-2.74-6.1-6.1-6.1l0,0c-0.4,0-0.79,0.04-1.16,0.11c-1.3-1.28-2.83-2.32-4.53-3.06v-4.92
	c0-7.59-6.21-13.81-13.8-13.81h-12.79c-7.59,0-13.8,1-13.8,8.6c0,9.35,0,34.96,0,44.32c-3.81,2.34-6.34,6.54-6.34,11.34
	c0,7.34,5.95,13.3,13.29,13.3c0.2,0,0.39,0,0.59-0.01v0.01H509L509,161.13z"/>
<path class="st17" d="M510.42,85.11l28.29,34.14v2.88v57.37c-2.5,5.74-8.23,9.78-14.86,9.78l0,0c-0.14,0-0.28,0-0.42-0.01v-12
	c-2.33,0-4.23-1.89-4.23-4.23c0-2.34,1.89-4.23,4.23-4.23v-7.69h-9.38v-0.01c-0.2,0.01-0.39,0.01-0.59,0.01
	c-7.34,0-13.29-5.96-13.29-13.3c0-4.8,2.54-9,6.34-11.34c0-9.35,0-34.96,0-44.32C506.52,88.46,508.01,86.32,510.42,85.11
	L510.42,85.11z"/>
<path class="st49" d="M535.42,105.26L535.42,105.26c3.35,0,6.1,2.75,6.1,6.1v5.65c0,3.36-2.74,6.1-6.1,6.1l0,0
	c-3.35,0-6.1-2.75-6.1-6.1v-5.65C529.33,108,532.07,105.26,535.42,105.26L535.42,105.26z"/>
<path class="st58" d="M478.82,73.39c-0.75,1.91-1.16,3.98-1.16,6.15l0,0c0,9.29,7.6,16.9,16.89,16.9h24.9c0.03,0,0.07,0,0.1,0v3.47
	c0,2.08,1.38,3.86,3.28,4.45v12.04h6.5v-5.03c0-3.36,2.74-6.1,6.1-6.1l0,0c3.35,0,6.1,2.75,6.1,6.1v5.65c0,2.15-1.12,4.04-2.81,5.13
	v5.97c4.58-4.41,7.44-10.6,7.44-17.43c0-9.11,0-14.31,0-23.42c0-4.76-3.89-8.65-8.65-8.65h-3.29c-0.08-3.02-1.34-5.21-4.04-5.21
	C512.53,73.39,496.47,73.39,478.82,73.39L478.82,73.39z"/>
<path class="st59" d="M529.33,111.36c0-3.36,2.74-6.1,6.1-6.1l0,0c3.35,0,6.1,2.75,6.1,6.1v5.65c0,2.15-1.12,4.04-2.81,5.13v5.97
	c4.58-4.41,7.44-10.6,7.44-17.43c0-9.11,0-14.31,0-23.42c0-0.75-0.1-1.47-0.28-2.16h-9.76c-3.74,0-6.79,3.06-6.79,6.79V111.36
	L529.33,111.36z"/>
<path class="st28" d="M506.52,107.76c2.26,0,4.09,1.83,4.09,4.1c0,2.26-1.83,4.1-4.09,4.1c-2.26,0-4.1-1.83-4.1-4.1
	C502.43,109.59,504.26,107.76,506.52,107.76L506.52,107.76z"/>
<polygon class="st57" points="553.84,324.46 569.04,336.78 563.47,341.41 549.58,328.48 553.84,324.46 "/>
<path class="st43" d="M536.07,361.42c-5.67-5.2-6.46-14.05-1.61-20.18l12.2-15.43l10.18,9.34L536.07,361.42L536.07,361.42z"/>
<polygon class="st60" points="550.36,319.5 565.72,331.43 561.19,339.13 547.14,326.24 550.36,319.5 "/>
<path class="st55" d="M554.49,501.22l32.44-8.7l11.7-3.13l3.72-1l1,3.72l0.9,3.35l2.24,8.36c0.55,2.05-0.68,4.17-2.72,4.72
	l-6.32,1.69l-5.38,1.44l-42.01,11.26l-2.57-9.58C546.07,508.09,549.22,502.63,554.49,501.22L554.49,501.22z"/>
<path class="st34" d="M605.18,498.97l0.71,2.67l0.59,2.18c0.55,2.05-0.68,4.17-2.72,4.72l-1.66,0.44l-4.66,1.25l-5.38,1.44
	l-42.01,11.26l-2.3-8.57L605.18,498.97L605.18,498.97z"/>
<path class="st21" d="M561.56,501.75c1.48,0,2.68,1.2,2.68,2.68c0,1.48-1.2,2.68-2.68,2.68c-1.48,0-2.68-1.2-2.68-2.68
	C558.88,502.96,560.08,501.75,561.56,501.75L561.56,501.75z"/>
<path class="st34" d="M560.22,498.2L560.22,498.2c0.74-0.16,1.48,0.3,1.64,1.04l1.03,4.59c0.16,0.74-0.3,1.48-1.04,1.64l0,0
	c-0.74,0.16-1.48-0.3-1.64-1.04l-1.03-4.59C559.02,499.1,559.49,498.36,560.22,498.2L560.22,498.2z"/>
<path class="st21" d="M568.93,499.54c1.48,0,2.68,1.2,2.68,2.68c0,1.48-1.2,2.68-2.68,2.68s-2.68-1.2-2.68-2.68
	C566.25,500.74,567.45,499.54,568.93,499.54L568.93,499.54z"/>
<path class="st34" d="M567.6,495.99L567.6,495.99c0.74-0.17,1.48,0.3,1.64,1.04l1.03,4.59c0.17,0.74-0.3,1.48-1.04,1.64l0,0
	c-0.74,0.17-1.48-0.3-1.64-1.04l-1.03-4.59C566.39,496.89,566.86,496.15,567.6,495.99L567.6,495.99z"/>
<path class="st21" d="M575.82,497.5c1.48,0,2.68,1.2,2.68,2.68c0,1.48-1.2,2.68-2.68,2.68c-1.48,0-2.68-1.2-2.68-2.68
	C573.14,498.7,574.34,497.5,575.82,497.5L575.82,497.5z"/>
<path class="st34" d="M574.49,493.94L574.49,493.94c0.74-0.17,1.48,0.3,1.64,1.04l1.03,4.59c0.16,0.74-0.3,1.48-1.04,1.64l0,0
	c-0.74,0.17-1.48-0.3-1.64-1.04l-1.03-4.59C573.28,494.85,573.75,494.11,574.49,493.94L574.49,493.94z"/>
<path class="st55" d="M420.29,455.83l23.75,23.76l8.56,8.57l2.72,2.73l-2.72,2.72l-2.45,2.45l-6.12,6.12c-1.5,1.5-3.95,1.5-5.45,0
	l-4.62-4.63l-3.94-3.94l-30.75-30.77l7.01-7.01C410.13,451.98,416.44,451.98,420.29,455.83L420.29,455.83z"/>
<path class="st34" d="M447.59,498.63l-1.95,1.95l-1.6,1.6c-1.5,1.5-3.95,1.5-5.45,0l-1.21-1.21l-3.41-3.42l-3.94-3.94l-30.75-30.77
	l6.27-6.28L447.59,498.63L447.59,498.63z"/>
<path class="st21" d="M422.08,460.12c0.71,1.3,0.23,2.93-1.06,3.64c-1.3,0.71-2.92,0.23-3.63-1.06c-0.71-1.3-0.23-2.93,1.06-3.64
	C419.74,458.35,421.37,458.83,422.08,460.12L422.08,460.12z"/>
<path class="st34" d="M424.56,457.24L424.56,457.24c0.5,0.57,0.44,1.44-0.12,1.94l-3.53,3.11c-0.57,0.5-1.44,0.44-1.94-0.12l0,0
	c-0.5-0.57-0.44-1.44,0.12-1.94l3.53-3.11C423.19,456.62,424.06,456.68,424.56,457.24L424.56,457.24z"/>
<path class="st21" d="M427.56,465.53c0.71,1.3,0.23,2.93-1.06,3.64c-1.3,0.71-2.92,0.23-3.63-1.06c-0.71-1.3-0.23-2.92,1.06-3.63
	C425.22,463.76,426.85,464.23,427.56,465.53L427.56,465.53z"/>
<path class="st34" d="M430.04,462.65L430.04,462.65c0.5,0.57,0.44,1.44-0.12,1.94l-3.53,3.11c-0.57,0.5-1.44,0.44-1.94-0.13l0,0
	c-0.5-0.57-0.44-1.44,0.12-1.94l3.53-3.11C428.67,462.03,429.54,462.08,430.04,462.65L430.04,462.65z"/>
<path class="st21" d="M432.66,470.6c0.71,1.3,0.23,2.93-1.06,3.64c-1.3,0.71-2.92,0.23-3.63-1.06c-0.71-1.3-0.23-2.92,1.06-3.63
	C430.32,468.82,431.95,469.3,432.66,470.6L432.66,470.6z"/>
<path class="st34" d="M435.14,467.72L435.14,467.72c0.5,0.57,0.44,1.44-0.12,1.94l-3.53,3.11c-0.57,0.5-1.44,0.44-1.94-0.12l0,0
	c-0.5-0.57-0.44-1.44,0.12-1.94l3.53-3.11C433.77,467.09,434.64,467.15,435.14,467.72L435.14,467.72z"/>
<path class="st52" d="M616.44,14.4h11.69V0h-11.69V14.4L616.44,14.4z M736.16,14.4h11.69V0h-11.69V14.4L736.16,14.4z"/>
<path class="st42" d="M592.83,14.4h184.92c4.14,0,7.53,2.54,7.53,5.65v74.44c0,3.11-3.39,5.65-7.53,5.65H592.83
	c-4.14,0-7.53-2.54-7.53-5.65V20.05C585.3,16.94,588.69,14.4,592.83,14.4L592.83,14.4z"/>
<path class="st61" d="M592.83,10.31h184.92c2.96,0,5.71,0.95,7.76,2.49c2.38,1.78,3.86,4.34,3.86,7.25v74.44
	c0,2.9-1.48,5.46-3.86,7.25c-2.05,1.54-4.8,2.49-7.76,2.49H592.83c-2.96,0-5.71-0.95-7.76-2.49c-2.38-1.79-3.86-4.34-3.86-7.25
	V20.05c0-2.9,1.48-5.46,3.86-7.25C587.12,11.27,589.87,10.31,592.83,10.31L592.83,10.31z M777.75,18.49H592.83
	c-1.18,0-2.2,0.32-2.88,0.83c-0.35,0.26-0.57,0.53-0.57,0.74v74.44c0,0.21,0.22,0.47,0.57,0.74c0.68,0.51,1.7,0.83,2.88,0.83h184.92
	c1.18,0,2.2-0.32,2.88-0.83c0.35-0.26,0.57-0.53,0.57-0.74V20.05c0-0.21-0.22-0.47-0.57-0.74C779.95,18.8,778.93,18.49,777.75,18.49
	L777.75,18.49z"/>
<path class="st61" d="M684.27,28.85c0-0.56,0.46-1.02,1.02-1.02c0.56,0,1.02,0.46,1.02,1.02v56.83c0,0.56-0.46,1.02-1.02,1.02
	c-0.56,0-1.02-0.46-1.02-1.02V28.85L684.27,28.85z"/>
<path class="st62" d="M605.62,31.33h63.59c1.37,0,2.5,1.12,2.5,2.5v12.96c0,1.38-1.13,2.5-2.5,2.5h-63.59c-1.37,0-2.5-1.12-2.5-2.5
	V33.83C603.12,32.45,604.24,31.33,605.62,31.33L605.62,31.33z"/>
<path class="st62" d="M700.85,31.33h63.59c1.37,0,2.5,1.12,2.5,2.5v12.96c0,1.38-1.12,2.5-2.5,2.5h-63.59c-1.37,0-2.5-1.12-2.5-2.5
	V33.83C698.36,32.45,699.48,31.33,700.85,31.33L700.85,31.33z"/>
<path class="st12" d="M605.62,58.93h63.59c1.37,0,2.5,1.12,2.5,2.5v1.08c0,1.38-1.13,2.5-2.5,2.5h-63.59c-1.37,0-2.5-1.12-2.5-2.5
	v-1.08C603.12,60.05,604.24,58.93,605.62,58.93L605.62,58.93z"/>
<path class="st12" d="M605.62,74.39h63.59c1.37,0,2.5,1.13,2.5,2.5v1.08c0,1.37-1.13,2.5-2.5,2.5h-63.59c-1.37,0-2.5-1.12-2.5-2.5
	v-1.08C603.12,75.51,604.24,74.39,605.62,74.39L605.62,74.39z"/>
<path class="st12" d="M700.85,58.93h63.59c1.37,0,2.5,1.12,2.5,2.5v1.08c0,1.38-1.12,2.5-2.5,2.5h-63.59c-1.37,0-2.5-1.12-2.5-2.5
	v-1.08C698.36,60.05,699.48,58.93,700.85,58.93L700.85,58.93z"/>
<path class="st12" d="M700.85,74.39h63.59c1.37,0,2.5,1.13,2.5,2.5v1.08c0,1.37-1.12,2.5-2.5,2.5h-63.59c-1.37,0-2.5-1.12-2.5-2.5
	v-1.08C698.36,75.51,699.48,74.39,700.85,74.39L700.85,74.39z"/>
<polygon class="st63" points="732.67,257.36 742.86,257.36 745.87,234.65 729.66,234.65 732.67,257.36 "/>
<polygon class="st34" points="728.54,233.6 730.8,233.6 730.8,229.96 744.73,229.96 744.73,233.6 746.98,233.6 746.98,237.31 
	728.54,237.31 728.54,233.6 "/>
<path class="st50" d="M653.97,339.23c4.43,0.6,7.54,4.67,6.95,9.1c-0.59,4.43-4.67,7.54-9.1,6.95s-7.54-4.67-6.94-9.1
	C645.46,341.75,649.54,338.64,653.97,339.23L653.97,339.23z"/>
<path class="st50" d="M692.42,388.2l27.27-11.22c8.67-3.57,18.67,0.61,22.24,9.28l37.92,92.25c3.56,8.67-0.61,18.68-9.28,22.25
	l-27.27,11.22c-8.67,3.57-18.67-0.61-22.24-9.28l-37.92-92.25C679.58,401.78,683.76,391.77,692.42,388.2L692.42,388.2z"/>
<path class="st51" d="M739.49,382.11c0.99,1.23,1.82,2.62,2.45,4.15l37.92,92.25c3.56,8.67-0.61,18.68-9.28,22.25l-27.27,11.22
	c-1.26,0.52-2.54,0.87-3.84,1.07c-0.99-1.23-1.82-2.62-2.45-4.15l-37.92-92.25c-3.56-8.67,0.61-18.68,9.28-22.25l27.27-11.22
	C736.91,382.66,738.2,382.31,739.49,382.11L739.49,382.11z"/>
<path class="st64" d="M651.62,344.04L651.62,344.04c1.99-0.82,4.28,0.14,5.09,2.12l41.99,102.14c0.82,1.99-0.14,4.28-2.12,5.1h0
	c-1.98,0.82-4.28-0.14-5.09-2.13L649.5,349.13C648.68,347.14,649.64,344.85,651.62,344.04L651.62,344.04z"/>
<path class="st51" d="M698,361.91L698,361.91c2.87-1.18,6.17,0.2,7.35,3.07l3.97,9.67c1.18,2.87-0.2,6.17-3.07,7.35l0,0
	c-2.87,1.18-6.17-0.2-7.35-3.07l-3.97-9.67C693.75,366.4,695.13,363.09,698,361.91L698,361.91z"/>
<path class="st28" d="M756.41,506.59c6.14-2.53,13.17,0.41,15.7,6.55c2.53,6.15-0.41,13.18-6.55,15.71
	c-6.14,2.53-13.17-0.41-15.7-6.55C747.33,516.15,750.26,509.12,756.41,506.59L756.41,506.59z"/>
<path class="st29" d="M759.12,513.19c2.5-1.03,5.37,0.17,6.39,2.67c1.03,2.5-0.17,5.37-2.67,6.4c-2.5,1.03-5.36-0.17-6.39-2.67
	C755.42,517.08,756.62,514.21,759.12,513.19L759.12,513.19z"/>
<path class="st50" d="M718.89,414.03l13.31-5.48c4.23-1.74,9.12,0.3,10.86,4.53l18.51,45.03c1.74,4.23-0.3,9.12-4.53,10.86
	l-13.31,5.48c-4.23,1.74-9.12-0.3-10.86-4.53l-18.51-45.03C712.62,420.65,714.66,415.77,718.89,414.03L718.89,414.03z"/>
<path class="st51" d="M725.07,415.77l5.54-2.28c3.78-1.55,8.14,0.27,9.69,4.04l16.53,40.21c1.55,3.78-0.27,8.14-4.04,9.7l-5.54,2.28
	L725.07,415.77L725.07,415.77z"/>
<path class="st61" d="M731.76,245.11c3.13,0,5.67,2.54,5.67,5.67c0,3.13-2.54,5.67-5.67,5.67h-30.07c-4.41,0-8.42-1.8-11.32-4.7
	c-2.9-2.9-4.7-6.91-4.7-11.32v-20.81c0-3.13,2.54-5.67,5.67-5.67c3.13,0,5.67,2.54,5.67,5.67v20.81c0,1.28,0.53,2.45,1.38,3.31
	c0.85,0.85,2.02,1.38,3.3,1.38H731.76L731.76,245.11z"/>
<path class="st17" d="M709.95,198.28L709.95,198.28c3.11,0,5.65,2.54,5.65,5.65v8.12c0,3.11-2.54,5.65-5.65,5.65l0,0
	c-3.1,0-5.64-2.54-5.64-5.65v-8.12C704.3,200.82,706.84,198.28,709.95,198.28L709.95,198.28z"/>
<path class="st21" d="M709.95,198.28L709.95,198.28c0.11,0,0.21,0,0.32,0.01v19.4c-0.1,0.01-0.21,0.01-0.32,0.01l0,0
	c-3.1,0-5.64-2.54-5.64-5.65v-8.12C704.3,200.82,706.84,198.28,709.95,198.28L709.95,198.28z"/>
<path class="st17" d="M709.83,155.91c13.87,0,25.12,11.25,25.12,25.13c0,13.88-11.25,25.13-25.12,25.13
	c-13.87,0-25.12-11.25-25.12-25.13C684.71,167.16,695.96,155.91,709.83,155.91L709.83,155.91z"/>
<path class="st21" d="M709.83,155.91c1.62,0,3.2,0.16,4.74,0.45c7.07,4.45,11.76,12.32,11.76,21.29c0,13.88-11.25,25.13-25.12,25.13
	c-1.62,0-3.2-0.16-4.73-0.45c-7.07-4.45-11.76-12.32-11.76-21.29C684.71,167.16,695.96,155.91,709.83,155.91L709.83,155.91z"/>
<path class="st58" d="M685.24,186.19c-0.35-1.66-0.53-3.39-0.53-5.16c0-11.73,8.03-21.58,18.89-24.35c0.35,1.66,3.51-1.59,3.51,5.16
	C707.11,168.59,696.1,183.42,685.24,186.19L685.24,186.19z"/>
<path class="st28" d="M716.4,179.84c1.36,0,2.46,1.1,2.46,2.46c0,1.36-1.1,2.46-2.46,2.46c-1.36,0-2.46-1.1-2.46-2.46
	C713.94,180.94,715.04,179.84,716.4,179.84L716.4,179.84z"/>
<path class="st58" d="M719.79,189.3c3.8,0,0.75,0,4.55,0c3.8,0,0.75,0,4.55,0c3.63,0,6.6,2.97,6.6,6.61v1c-4.75,0-2.65,0-7.41,0
	c-2.06,0-3.75-1.69-3.75-3.75c0,2.06-1.69,3.75-3.75,3.75c-4.75,0-2.66,0-7.41,0v-1C713.18,192.27,716.15,189.3,719.79,189.3
	L719.79,189.3z"/>
<path class="st21" d="M729.39,244.06h5.96c3.59,0,6.53,2.94,6.53,6.53v0.23c0,3.59-2.94,6.53-6.53,6.53h-5.96
	c-1.76,0-3.21-1.44-3.21-3.21v-6.89C726.18,245.5,727.62,244.06,729.39,244.06L729.39,244.06z"/>
<path class="st65" d="M737.21,226.77V208.2c0-3.05,2.49-5.55,5.54-5.55h6.38c3.05,0,5.54-2.5,5.54-5.55v-10.15 M754.68,181.86v-3.32
	 M742.92,226.77v-9.29 M742.92,193.29v-12.4 M742.92,170.26v-4.64 M737.21,225.96v-9.29c0-3.05,2.49-5.55,5.54-5.55h6.38
	c3.05,0,5.54-2.5,5.54-5.55v-10.15 M754.68,190.33v-3.32"/>
<path class="st58" d="M728.22,150.22c5.94,0,10.76,4.82,10.76,10.76c0,7.94-8.17,12.26-15.15,12.26c-9.13,0-16.66-6.82-17.8-15.64
	c4.07,3.5,8.85,3.35,12.44-1.43C720.98,152.83,723.55,150.22,728.22,150.22L728.22,150.22z"/>
<path class="st21" d="M692.37,176.57c2.7,0,4.9,2.19,4.9,4.9c0,2.71-2.19,4.9-4.9,4.9c-2.71,0-4.9-2.19-4.9-4.9
	C687.47,178.76,689.66,176.57,692.37,176.57L692.37,176.57z"/>
<path class="st58" d="M709.83,155.91c5.65,0,10.86,1.87,15.05,5.01c-2.93,0.52-6.25,0.82-9.76,0.82c-6.93,0-13.09-1.14-17.03-2.92
	C701.6,156.96,705.59,155.91,709.83,155.91L709.83,155.91z"/>
<polygon class="st14" points="737.33,267.96 751.5,267.96 751.5,272.42 737.33,272.42 737.33,267.96 "/>
<path class="st57" d="M763.11,245.67h9.51c3.06,0,5.56,2.5,5.56,5.56l0,0c0,3.06-2.5,5.56-5.56,5.56h-9.51
	c-3.06,0-5.56-2.5-5.56-5.56l0,0C757.55,248.17,760.05,245.67,763.11,245.67L763.11,245.67z"/>
<polygon class="st4" points="754.94,250.07 780.8,250.07 780.8,257.36 754.94,257.36 754.94,250.07 "/>
<path class="st16" d="M0.19,510.24v-6.34h67.69c1.74,0,3.17,1.43,3.17,3.17l0,0c0,1.74-1.43,3.17-3.17,3.17H0.19L0.19,510.24z"/>
<path class="st16" d="M128.21,503.9c1.74,0,3.17,1.43,3.17,3.17l0,0c0,1.74-1.43,3.17-3.17,3.17c-32.09,0-7.24,0-39.33,0
	c-1.74,0-3.17-1.43-3.17-3.17l0,0c0-1.74,1.43-3.17,3.17-3.17C120.97,503.9,96.12,503.9,128.21,503.9L128.21,503.9z"/>
<path class="st16" d="M158.27,503.9c1.74,0,3.17,1.43,3.17,3.17l0,0c0,1.74-1.43,3.17-3.17,3.17c-32.09,0,21.23,0-10.86,0
	c-1.74,0-3.17-1.43-3.17-3.17l0,0c0-1.74,1.42-3.17,3.17-3.17C179.5,503.9,126.18,503.9,158.27,503.9L158.27,503.9z"/>
<path class="st16" d="M443.01,537.66c1.74,0,3.17,1.43,3.17,3.17l0,0c0,1.74-1.43,3.17-3.17,3.17c-71.44,0-105.23,0-176.67,0
	c-1.74,0-3.17-1.43-3.17-3.17l0,0c0-1.74,1.43-3.17,3.17-3.17C337.78,537.66,371.57,537.66,443.01,537.66L443.01,537.66z
	 M243.22,537.66c1.74,0,3.17,1.43,3.17,3.17l0,0c0,1.74-1.43,3.17-3.17,3.17c-71.44,0,47.94,0-23.5,0c-1.74,0-3.17-1.43-3.17-3.17
	l0,0c0-1.74,1.43-3.17,3.17-3.17C291.16,537.66,171.78,537.66,243.22,537.66L243.22,537.66z"/>
<path class="st17" d="M415.41,318.04L415.41,318.04c2.34-1.35,5.36-0.54,6.71,1.8l39.63,68.72c1.35,2.34,0.54,5.37-1.8,6.72l0,0
	c-2.34,1.35-5.36,0.54-6.71-1.8l-39.63-68.73C412.26,322.41,413.07,319.39,415.41,318.04L415.41,318.04z"/>
<path class="st18" d="M459.95,395.28c-2.34,1.35-5.36,0.54-6.71-1.8l-39.63-68.73c-1.35-2.34-0.54-5.37,1.8-6.72L459.95,395.28
	L459.95,395.28z"/>
<path class="st17" d="M480.39,336.84c13.98,0,25.32,11.35,25.32,25.34c0,13.99-11.34,25.34-25.32,25.34
	c-13.98,0-25.32-11.35-25.32-25.34C455.07,348.19,466.41,336.84,480.39,336.84L480.39,336.84z"/>
<path class="st18" d="M459.96,377.14c-3.07-4.19-4.89-9.37-4.89-14.97c0-11.51,7.68-21.23,18.19-24.31h0.01
	c12.09,0,21.89,9.8,21.89,21.9c0,12.09-9.8,21.9-21.89,21.9C468.26,381.66,463.65,379.97,459.96,377.14L459.96,377.14z"/>
<path class="st58" d="M458.71,349.08c3.72-7.94,17.7-15.84,26.38-11.81C483.55,346.71,467.58,352.82,458.71,349.08L458.71,349.08z"
	/>
<path class="st28" d="M481.82,360.06c1.74,0,3.16,1.41,3.16,3.16c0,1.74-1.41,3.16-3.16,3.16s-3.16-1.41-3.16-3.16
	C478.66,361.47,480.08,360.06,481.82,360.06L481.82,360.06z"/>
<path class="st18" d="M422.96,326.28c-3.33,1.93-7.64,0.77-9.56-2.56l-55.19-95.5c-1.93-3.34-0.77-7.64,2.56-9.57L422.96,326.28
	L422.96,326.28z"/>
<path class="st18" d="M422.94,309.82c5.64,0,10.22,4.58,10.22,10.23c0,5.65-4.58,10.22-10.22,10.22c-5.64,0-10.22-4.58-10.22-10.22
	C412.72,314.4,417.3,309.82,422.94,309.82L422.94,309.82z"/>
<path class="st17" d="M422.94,309.82c5.52,0,10.02,4.38,10.21,9.85c-1.77,2.56-4.72,4.23-8.06,4.23c-5.41,0-9.79-4.39-9.79-9.8
	c0-0.3,0.01-0.6,0.04-0.89C417.21,311.13,419.92,309.82,422.94,309.82L422.94,309.82z"/>
<path class="st58" d="M489.41,332.68c-5.31,0-9.45,3.51-9.45,9.46c0,15.45,29.63,17.35,31.69,1.27c-4.07,3.5-6.58,0.06-10.17-4.73
	C498.98,335.34,494.72,332.68,489.41,332.68L489.41,332.68z"/>
<path class="st34" d="M543.19,485.9c5.69,0,10.29,4.38,10.29,9.78H532.9C532.9,490.28,537.51,485.9,543.19,485.9L543.19,485.9z"/>
<path class="st27" d="M455.84,373.06l11.9,20.63c2.08,3.61,0.84,8.27-2.77,10.36l0,0c-3.61,2.09-2.25,4.3-4.34,0.69l-17.64-23.63
	L455.84,373.06L455.84,373.06z"/>
<path class="st25" d="M464.97,404.04c-3.61,2.09-1.53,5.7-3.61,2.09l-18.37-25.03l6.43-4.02L464.97,404.04L464.97,404.04z"/>
<path class="st34" d="M519.43,485.9c5.68,0,10.29,4.38,10.29,9.78h-20.59C509.14,490.28,513.75,485.9,519.43,485.9L519.43,485.9z"/>
<path class="st50" d="M419.36,299.11l3.69,5.76c0.83,1.3,0.45,3.03-0.85,3.86l-13.08,8.38c-1.3,0.83-3.03,0.45-3.86-0.85l-3.69-5.76
	c-0.83-1.29-0.45-3.03,0.85-3.86l13.08-8.38C416.79,297.44,418.53,297.82,419.36,299.11L419.36,299.11z"/>
<path class="st51" d="M419.36,299.11l3.69,5.76c0.83,1.3,0.45,3.03-0.85,3.86l-6.84,4.38l-6.22-10.77l6.36-4.08
	C416.79,297.44,418.53,297.82,419.36,299.11L419.36,299.11z"/>
</svg>
